<?xml version="1.0" encoding="UTF-8" standalone="no"?>
<!-- Created with Inkscape (http://www.inkscape.org/) -->

<svg
   xmlns:dc="http://purl.org/dc/elements/1.1/"
   xmlns:cc="http://creativecommons.org/ns#"
   xmlns:rdf="http://www.w3.org/1999/02/22-rdf-syntax-ns#"
   xmlns:svg="http://www.w3.org/2000/svg"
   xmlns="http://www.w3.org/2000/svg"
   xmlns:sodipodi="http://sodipodi.sourceforge.net/DTD/sodipodi-0.dtd"
   xmlns:inkscape="http://www.inkscape.org/namespaces/inkscape"
   width="217"
   height="63.423592"
   id="svg6896"
   version="1.1"
   inkscape:version="0.48.3.1 r9886"
   sodipodi:docname="mcqn_logo_final.svg"
   inkscape:export-filename="/home/adrian/Documents/MCQN Ltd/mcqn_logo_final.png"
   inkscape:export-xdpi="90"
   inkscape:export-ydpi="90">
  <defs
     id="defs6898" />
  <sodipodi:namedview
     id="base"
     pagecolor="#ffffff"
     bordercolor="#666666"
     borderopacity="1.0"
     inkscape:pageopacity="0.0"
     inkscape:pageshadow="2"
     inkscape:zoom="1.979899"
     inkscape:cx="166.12223"
     inkscape:cy="17.395328"
     inkscape:document-units="px"
     inkscape:current-layer="g3806-6-9-9-1-5"
     showgrid="false"
     inkscape:window-width="1366"
     inkscape:window-height="744"
     inkscape:window-x="0"
     inkscape:window-y="24"
     inkscape:window-maximized="1"
     fit-margin-top="1"
     fit-margin-right="1"
     fit-margin-bottom="1"
     fit-margin-left="1" />
  <metadata
     id="metadata6901">
    <rdf:RDF>
      <cc:Work
         rdf:about="">
        <dc:format>image/svg+xml</dc:format>
        <dc:type
           rdf:resource="http://purl.org/dc/dcmitype/StillImage" />
        <dc:title />
      </cc:Work>
    </rdf:RDF>
  </metadata>
  <g
     inkscape:label="Layer 1"
     inkscape:groupmode="layer"
     id="layer1"
     transform="translate(-132.1858,-158.0029)">
    <g
       id="g3861-5-1-8-1"
       transform="matrix(-0.35855949,0.33772922,-0.33772922,-0.35855949,309.32058,185.94101)"
       style="fill:#00b2ff;fill-opacity:1;stroke:none;stroke-opacity:1;stroke-width:1.25886231000000004;stroke-miterlimit:4;stroke-dasharray:none">
      <path
         id="path2986-9-0-7-6"
         d="M 0,53.572 C -0.016,40.7 5.321,30.962 10.48,24.78 l 0,0 c 5.187,-6.233 10.224,-9.236 10.676,-9.516 l 0,0 c 3.368,-1.993 7.697,-0.849 9.667,2.555 l 0,0 c 1.966,3.392 0.851,7.747 -2.489,9.75 l 0,0 0.001,0.001 c 0,0 -0.004,0.001 -0.015,0.008 l 0,0 c -0.009,0.004 -0.023,0.014 -0.042,0.026 l 0,0 c -0.068,0.042 -0.194,0.125 -0.367,0.244 l 0,0 c -0.351,0.234 -0.897,0.625 -1.572,1.162 l 0,0 c -1.349,1.073 -3.203,2.74 -5.029,4.945 l 0,0 c -3.669,4.467 -7.166,10.798 -7.181,19.616 l 0,0 c 0.003,8.889 3.547,16.882 9.314,22.722 l 0,0 c 5.78,5.83 13.687,9.416 22.48,9.418 l 0,0 c 8.793,-0.002 16.699,-3.588 22.478,-9.418 l 0,0 c 5.769,-5.84 9.313,-13.833 9.316,-22.722 l 0,0 C 77.701,45.023 74.423,38.828 70.88,34.376 l 0,0 c -3.373,-4.221 -6.982,-6.572 -7.341,-6.791 l 0,0 C 63.535,27.582 63.53,27.581 63.527,27.579 l 0,0 c -0.005,-0.003 -0.008,-0.005 -0.011,-0.006 l 0,0 C 63.513,27.57 63.509,27.57 63.509,27.57 l 0,0 0,0 c -3.336,-2.005 -4.452,-6.36 -2.488,-9.752 l 0,0 c 1.972,-3.404 6.3,-4.548 9.667,-2.555 l 0,0 c 0.454,0.279 5.491,3.282 10.678,9.516 l 0,0 c 5.162,6.183 10.496,15.92 10.481,28.792 l 0,0 C 91.843,79.208 71.283,99.991 45.924,100 l 0,0 C 20.565,99.991 0.006,79.208 0,53.572 l 0,0 z"
         inkscape:connector-curvature="0"
         style="fill:#00b2ff;fill-opacity:1;stroke:none;stroke-opacity:1;stroke-width:1.25886231000000004;stroke-miterlimit:4;stroke-dasharray:none" />
      <path
         id="path2988-7-5-7-1"
         d="M 38.859,50.001 V 28.571 7.143 C 38.859,3.199 42.022,0 45.925,0 l 0,0 c 3.899,0 7.062,3.199 7.062,7.143 l 0,0 v 21.428 21.43 h 0.002 c 0,3.941 -3.165,7.141 -7.064,7.141 l 0,0 c -3.903,0 -7.066,-3.2 -7.066,-7.141 l 0,0 z"
         inkscape:connector-curvature="0"
         style="fill:#00b2ff;fill-opacity:1;stroke:none;stroke-opacity:1;stroke-width:1.25886231000000004;stroke-miterlimit:4;stroke-dasharray:none" />
    </g>
    <path
       style="font-size:medium;font-style:normal;font-variant:normal;font-weight:normal;font-stretch:normal;text-indent:0;text-align:start;text-decoration:none;line-height:normal;letter-spacing:normal;word-spacing:normal;text-transform:none;direction:ltr;block-progression:tb;writing-mode:lr-tb;text-anchor:start;baseline-shift:baseline;color:#000000;fill:#00b2ff;fill-opacity:1;stroke:none;stroke-width:0.62007873999999996;marker:none;visibility:visible;display:inline;overflow:visible;enable-background:accumulate;font-family:Sans;-inkscape-font-specification:Sans;stroke-opacity:1;stroke-miterlimit:4;stroke-dasharray:none"
       d="m 231.69259,159.0029 c -5.859,0 -11.7177,2.21225 -16.13279,6.62734 -8.83019,8.8302 -8.83019,23.07928 0,31.90948 8.83019,8.83019 23.43539,8.83019 32.26558,0 a 3.5541986,3.4289403 0 1 0 -5.11161,-4.76411 c -6.16486,6.16486 -15.86593,6.16486 -22.0308,0 l -0.0463,-0.0446 c -6.119,-6.1688 -6.10329,-16.19823 0.0463,-22.34778 6.16487,-6.16487 15.86594,-6.16487 22.0308,0 a 3.5541986,3.4289403 0 1 0 5.11161,-4.75296 c -4.41509,-4.41509 -10.2738,-6.62734 -16.13279,-6.62734 z"
       id="path2998-3-8-7-94-1-7"
       inkscape:connector-curvature="0" />
    <g
       style="fill:none;fill-opacity:1;stroke:#000000;stroke-opacity:1;stroke-width:1.25886231;stroke-miterlimit:4;stroke-dasharray:none"
       id="g3806-6-9-9-1-5"
       transform="matrix(0.49257074,0,0,0.49257074,407.46857,146.83255)">
      <path
         style="font-size:medium;font-style:normal;font-variant:normal;font-weight:normal;font-stretch:normal;text-indent:0;text-align:start;text-decoration:none;line-height:normal;letter-spacing:normal;word-spacing:normal;text-transform:none;direction:ltr;block-progression:tb;writing-mode:lr-tb;text-anchor:start;baseline-shift:baseline;color:#000000;fill:#00b2ff;stroke:none;stroke-width:0.62007873999999996;stroke-miterlimit:4;stroke-opacity:1;stroke-dasharray:none;marker:none;visibility:visible;display:inline;overflow:visible;enable-background:accumulate;font-family:Sans;-inkscape-font-specification:Sans;fill-opacity:1"
         d="M 192.84375 1.40625 C 180.25183 1.6260425 170.28375 12.017324 170.5 24.40625 C 170.51661 24.49539 170.54264 24.571196 170.5625 24.65625 L 170.5625 43.21875 C 170.51443 44.161117 170.88124 45.128501 171.53125 45.8125 C 172.18126 46.496499 173.11891 46.90625 174.0625 46.90625 C 175.00609 46.90625 175.94374 46.496499 176.59375 45.8125 C 177.24376 45.128501 177.57931 44.161117 177.53125 43.21875 L 177.53125 24.96875 C 177.57992 24.758754 177.62084 24.540716 177.625 24.3125 C 177.47115 15.498442 184.35769 8.4003065 192.96875 8.25 C 201.57981 8.099694 208.7524 14.935942 208.90625 23.75 C 208.9097 23.934874 208.9097 24.127626 208.90625 24.3125 C 208.90228 24.61045 208.92124 24.87286 208.96875 25.125 L 208.96875 43.21875 C 208.96875 45.048296 210.60795 46.71875 212.4375 46.71875 C 214.26705 46.71875 215.9375 45.048296 215.9375 43.21875 L 215.9375 24.71875 C 215.95676 24.615657 215.9935 24.513809 216 24.40625 C 216.00443 24.144408 216.00443 23.886841 216 23.625 C 215.78375 11.236074 205.43567 1.1864575 192.84375 1.40625 z "
         transform="matrix(2.0301653,0,0,2.0301653,-558.86951,22.677656)"
         id="path3786-1-1-8-9-2-9" />
    </g>
    <g
       id="g6642"
       transform="matrix(0.49257074,0,0,0.49257074,55.684554,-93.934195)"
       style="fill:#00b2ff;fill-opacity:1;stroke:none;stroke-width:1.25886231000000004;stroke-opacity:1;stroke-miterlimit:4;stroke-dasharray:none">
      <g
         transform="translate(-38.261653,-533.87503)"
         id="g5795"
         style="fill:#00b2ff;fill-opacity:1;stroke:none;stroke-width:1.25886231000000004;stroke-opacity:1;stroke-miterlimit:4;stroke-dasharray:none" />
      <path
         style="font-size:medium;font-style:normal;font-variant:normal;font-weight:normal;font-stretch:normal;text-indent:0;text-align:start;text-decoration:none;line-height:normal;letter-spacing:normal;word-spacing:normal;text-transform:none;direction:ltr;block-progression:tb;writing-mode:lr-tb;text-anchor:start;baseline-shift:baseline;color:#000000;fill:#00b2ff;fill-opacity:1;stroke:none;stroke-width:1.25886231000000004;marker:none;visibility:visible;display:inline;overflow:visible;enable-background:accumulate;font-family:Sans;-inkscape-font-specification:Sans;stroke-opacity:1;stroke-miterlimit:4;stroke-dasharray:none"
         d="m 197.6478,514.26889 c -20.89486,0.41606 -37.47877,17.27644 -38.11411,37.70772 a 7.173233,7.0024415 0 0 0 -0.16041,1.56593 l 0,0.28187 0,45.41213 a 7.173233,7.0024415 0 1 0 14.34091,0 l 0,-45.16158 a 7.173233,7.0024415 0 0 0 0,-0.46978 c -3.7e-4,-0.0213 3.2e-4,-0.0413 0,-0.0626 -0.20847,-13.88633 10.66805,-25.03648 24.28652,-25.27419 13.63938,-0.23808 24.90983,10.5438 25.15274,24.45991 0.002,0.10548 -5.1e-4,0.20768 0,0.31318 9e-4,0.1899 0.003,0.37386 0,0.56374 l 0,0.21923 a 7.173233,7.0024415 0 0 0 0,0.46978 l 0,44.94235 a 7.173233,7.0024415 0 1 0 14.34091,0 l 0,-45.16158 a 7.173233,7.0024415 0 0 0 0,-0.25055 l 0,-0.21923 c -3.7e-4,-0.0213 3.2e-4,-0.0413 0,-0.0626 -0.20847,-13.88633 10.66805,-25.03648 24.28651,-25.27419 13.63939,-0.23808 24.90984,10.5438 25.15274,24.45991 0.002,0.10548 -5e-4,0.20768 0,0.31318 9.1e-4,0.1899 0.003,0.37386 0,0.56374 a 7.173233,7.0024415 0 0 0 0,0.68901 l 0,44.94235 a 7.173233,7.0024415 0 1 0 14.34091,0 l 0,-45.41213 c 0.002,-0.0935 -9e-4,-0.18837 0,-0.28187 0.003,-0.35318 0.006,-0.71167 0,-1.06483 -0.37185,-21.303 -18.1706,-38.5855 -39.75031,-38.20882 -12.94242,0.2259 -24.21689,6.81818 -31.15218,16.59891 -7.20493,-10.18991 -19.17282,-16.83377 -32.62799,-16.59891 l -0.0962,0 z"
         id="path6580-1-9"
         inkscape:connector-curvature="0" />
    </g>
    <text
       xml:space="preserve"
       style="font-size:14.18603706000000031px;font-style:normal;font-variant:normal;font-weight:normal;font-stretch:normal;line-height:125%;letter-spacing:0px;word-spacing:0px;fill:#00b2ff;fill-opacity:1;stroke:none;font-family:Vemana2000;-inkscape-font-specification:Vemana2000;stroke-opacity:1;stroke-width:0.62007873999999996;stroke-miterlimit:4;stroke-dasharray:none"
       x="302.18637"
       y="220.42648"
       id="text6811"
       sodipodi:linespacing="125%"><tspan
         sodipodi:role="line"
         id="tspan6813"
         x="302.18637"
         y="220.42648"
         style="font-size:15.76226330000000075px;fill:#00b2ff;fill-opacity:1;stroke:none;stroke-opacity:1;stroke-width:0.62007873999999996;stroke-miterlimit:4;stroke-dasharray:none">L</tspan></text>
    <text
       xml:space="preserve"
       style="font-size:14.18542575999999933px;font-style:normal;font-variant:normal;font-weight:normal;font-stretch:normal;line-height:125%;letter-spacing:0px;word-spacing:0px;fill:#00b2ff;fill-opacity:1;stroke:none;font-family:Vemana2000;-inkscape-font-specification:Vemana2000;stroke-opacity:1;stroke-width:0.62007873999999996;stroke-miterlimit:4;stroke-dasharray:none"
       x="320.01038"
       y="220.41698"
       id="text6815"
       sodipodi:linespacing="125%"
       transform="scale(0.99995699,1.000043)"><tspan
         sodipodi:role="line"
         id="tspan6817"
         x="320.01038"
         y="220.41698"
         style="font-size:15.76158524000000050px;fill:#00b2ff;fill-opacity:1;stroke:none;stroke-opacity:1;stroke-width:0.62007873999999996;stroke-miterlimit:4;stroke-dasharray:none">T</tspan></text>
    <text
       xml:space="preserve"
       style="font-size:14.18577862000000067px;font-style:normal;font-variant:normal;font-weight:normal;font-stretch:normal;line-height:125%;letter-spacing:0px;word-spacing:0px;fill:#00b2ff;fill-opacity:1;stroke:none;font-family:Vemana2000;-inkscape-font-specification:Vemana2000;stroke-opacity:1;stroke-width:0.62007873999999996;stroke-miterlimit:4;stroke-dasharray:none"
       x="336.92734"
       y="220.42247"
       id="text6819"
       sodipodi:linespacing="125%"
       transform="scale(0.99998181,1.0000182)"><tspan
         sodipodi:role="line"
         id="tspan6821"
         x="336.92734"
         y="220.42247"
         style="font-size:15.76197720000000047px;fill:#00b2ff;fill-opacity:1;stroke:none;stroke-opacity:1;stroke-width:0.62007873999999996;stroke-miterlimit:4;stroke-dasharray:none">D</tspan></text>
  </g>
</svg>
